/* XPM */
static char * bitcoin64_xpm[] = {
"64 64 150 2",
"  	c None",
". 	c #FCD363",
"+ 	c #FBD163",
"@ 	c #FBD263",
"# 	c #F9D163",
"$ 	c #FAD163",
"% 	c #F9CF63",
"& 	c #F9D063",
"* 	c #F7CF63",
"= 	c #F8CF63",
"- 	c #F6CC63",
"; 	c #F6CD63",
"> 	c #F7CB63",
", 	c #F7CD63",
"' 	c #F5CA63",
") 	c #F5CB63",
"! 	c #F5CB64",
"~ 	c #F5CC63",
"{ 	c #F3C964",
"] 	c #F4CA63",
"^ 	c #F4CA62",
"/ 	c #F4C963",
"( 	c #F3C963",
"_ 	c #F3CA63",
": 	c #F2C863",
"< 	c #F2C963",
"[ 	c #F1C764",
"} 	c #F0C664",
"| 	c #EFC564",
"1 	c #F0C665",
"2 	c #F0C563",
"3 	c #F0C564",
"4 	c #EEC664",
"5 	c #EEC464",
"6 	c #EDC463",
"7 	c #EDC364",
"8 	c #EDC465",
"9 	c #EDC264",
"0 	c #EEC364",
"a 	c #EDC164",
"b 	c #ECC264",
"c 	c #ECC263",
"d 	c #ECC164",
"e 	c #ECC265",
"f 	c #EBC164",
"g 	c #EBC163",
"h 	c #EAC163",
"i 	c #EAC064",
"j 	c #EAC065",
"k 	c #E9C063",
"l 	c #EABF64",
"m 	c #E9BF64",
"n 	c #E9BF63",
"o 	c #E8BF64",
"p 	c #E9BF65",
"q 	c #E8BE64",
"r 	c #E8BE65",
"s 	c #E9BE64",
"t 	c #E7BE63",
"u 	c #E7BD64",
"v 	c #E7BC65",
"w 	c #E7BD65",
"x 	c #E6BC64",
"y 	c #E6BC65",
"z 	c #E7BB65",
"A 	c #E5BB64",
"B 	c #E6BB65",
"C 	c #E4BB64",
"D 	c #E5BC63",
"E 	c #E4BA64",
"F 	c #E4BA65",
"G 	c #E5BA64",
"H 	c #E3BB64",
"I 	c #E3B964",
"J 	c #E3BA65",
"K 	c #E2B965",
"L 	c #E3B864",
"M 	c #E2B864",
"N 	c #E1B764",
"O 	c #E3B865",
"P 	c #E2B963",
"Q 	c #E2B865",
"R 	c #E2B764",
"S 	c #E2B763",
"T 	c #E3B765",
"U 	c #E1B664",
"V 	c #E1B565",
"W 	c #E1B765",
"X 	c #E2B664",
"Y 	c #E0B564",
"Z 	c #E0B565",
"` 	c #E0B563",
" .	c #DFB364",
"..	c #DFB464",
"+.	c #DEB465",
"@.	c #E0B363",
"#.	c #DFB465",
"$.	c #DEB364",
"%.	c #DEB365",
"&.	c #DDB364",
"*.	c #DDB264",
"=.	c #DEB264",
"-.	c #DCB164",
";.	c #DDB164",
">.	c #DCB065",
",.	c #DBB064",
"'.	c #DBB164",
").	c #DCAF64",
"!.	c #DAAE64",
"~.	c #DAAF64",
"{.	c #DAAE63",
"].	c #D9AE64",
"^.	c #DAAE65",
"/.	c #D9AE65",
"(.	c #D9AD64",
"_.	c #D8AD64",
":.	c #D7AC64",
"<.	c #D8AD65",
"[.	c #D9AC64",
"}.	c #D8AC64",
"|.	c #D8AC65",
"1.	c #D8AB64",
"2.	c #D7AB64",
"3.	c #D6AB64",
"4.	c #D7AB63",
"5.	c #D6AA65",
"6.	c #D5A966",
"7.	c #D5A964",
"8.	c #D5AA64",
"9.	c #D5AA65",
"0.	c #D5A965",
"a.	c #D4A965",
"b.	c #D3A965",
"c.	c #D3A865",
"d.	c #D2A865",
"e.	c #D2A765",
"f.	c #D3A764",
"g.	c #D1A566",
"h.	c #D1A665",
"i.	c #D0A565",
"j.	c #D0A465",
"k.	c #D0A464",
"l.	c #CFA366",
"m.	c #CEA466",
"n.	c #CEA265",
"o.	c #CDA165",
"p.	c #CCA065",
"q.	c #CB9F65",
"r.	c #CA9E65",
"s.	c #000000",
"                                                                                                                                ",
"                                                                                                                                ",
"                                                                                                                                ",
"                                                            . . .                                                               ",
"                                                          + @ @ @ +                                                             ",
"                                                          # $ $ $ #                                                             ",
"                                                          % & & & %                                                             ",
"                                                          * = = = *                                                             ",
"                                                                                                                                ",
"                                                            - ; -                                                               ",
"                                                  > - - - - - - - - - - - ,                                                     ",
"                                            ' ) ) ) ) ) ) ) ) ) ) ) ) ) ) ) ) ! ~                                               ",
"                                        { ] ] ] ] ] ] ] ] ] ] ] ] ] ] ] ] ] ] ] ] ] ^                                           ",
"                                      / ( ( ( ( ( ( (                   _ ( ( ( ( ( ( (                                         ",
"                                    : : : : : :                               : : : : : <                                       ",
"                                  [ [ [ [ [                                       [ [ [ [ [                                     ",
"                } } |           } } } } }                                           } } } } }             1 }                   ",
"              | | | | |       | | | | 2               | |       3 | |                 4 | | | |       | | | | |                 ",
"              5 5 5 5 5     5 5 5 5 6                 5 5       5 5 5                   5 5 5 5 5     5 5 5 5 5                 ",
"                7 7 7 6   8 7 7 7 9                   7 7       7 7 7                     7 7 7 7 5   0 7 7 7                   ",
"                  a b     b b b b                   c b b b     b b d                       b b b b     b e                     ",
"                        d d d d           d d d d d d d d d d d d d d d d d                   d d d a                           ",
"                        f f f g           f f f f f f f f f f f f f f f f f f f               g f f f                           ",
"                      h i i i                   i i i i i           j i i i i i k               i i i l                         ",
"                      m m m n                   o m m m m             p m m m m m               l m m m                         ",
"                      q q q                     r q q q q               q q q q s                 q q q                         ",
"                    t u u u                     v u u u u               u u u u u                 u u u w                       ",
"                    x x x x                     y x x x x             x x x x x z                 x x x x                       ",
"                    A A A B                     B A A A A             A A A A C                   C A A D                       ",
"                    E E E E                     F E E E E E F G H E E E E E E                     F E E E                       ",
"                    I I I I                     J I I I I I I I I I I I I K                       L I I I                       ",
"                    M M M N                     O M M M M M M M M M M M M M M P                   Q M M M                       ",
"                    R R R S                     T R R R R             R R R R R R                 M R R R                       ",
"                    U U U U                     V U U U U               U U U U U                 W U U X                       ",
"                    Y Y Y Y                     Z Y Y Y Y               ` Y Y Y Y Y               Y Y Y Y                       ",
"                     .......                    +.........              @.........#.              ........                      ",
"                      $.$.$.                    %.$.$.$.$.               .$.$.$.$.$.              $.$.$.                        ",
"                      &.*.*.*.                  =.*.*.*.*.              *.*.*.*.*.*.            *.*.*.*.                        ",
"                      *.-.-.-.                  -.-.-.-.-.          ;.-.-.-.-.-.-.              -.-.-.>.                        ",
"                        ,.,.,.'.          ,.,.,.,.,.,.,.,.,.,.,.,.,.,.,.,.,.,.,.'.            ).,.,.,.                          ",
"                        !.~.~.~.          ~.~.~.~.~.~.~.~.~.~.~.~.~.~.~.~.~.~.                ~.~.~.~.                          ",
"                  {.!.    ].].].{.                  ^.].].].    /.].].                      ].].].].    ].(.                    ",
"                _._._.:.  _._._._.<.                  _._.      _._._.                    [._._._.(.  _._._._.                  ",
"              }.}.}.}.}.    |.}.}.}.1.                }.}.      }.}.}.                  }.}.}.}.}.    }.}.}.}.}.                ",
"              2.2.2.2.2.      2.2.2.2.3.              2.2.      2.2.2.                4.2.2.2.2.      2.2.2.2.2.                ",
"                5.5.2.          5.5.5.5.5.                                          5.5.5.5.5.          6.5.5.                  ",
"                7.              8.9.9.9.9.8.                                      9.9.9.9.9.8.              7.                  ",
"                                    0.a.a.a.a.6.                              a.a.a.a.a.a.                                      ",
"                                      b.c.c.c.c.c.c.c.                  b.c.c.c.c.c.c.d.                                        ",
"                                        d.e.e.e.e.e.e.e.e.e.e.e.e.e.e.e.e.e.e.e.e.e.f.                                          ",
"                                            g.h.h.h.h.h.h.h.h.h.h.h.h.h.h.h.h.h.h.                                              ",
"                                                  i.i.i.i.i.i.i.i.i.i.i.i.j.                                                    ",
"                                                          k.l.m.l.k.                                                            ",
"                                                                                                                                ",
"                                                          n.n.n.n.n.                                                            ",
"                                                          n.o.o.o.n.                                                            ",
"                                                          p.p.p.p.p.                                                            ",
"                                                          p.q.q.q.p.                                                            ",
"                                                          r.r.r.r.r.                                                            ",
"                                                                                                                                ",
"                                                                                                                                ",
"                                                                                                                                ",
"                                                                                                                                ",
"                  s.                                                                                                            "};
