/* XPM */
static char * bitcoin16_xpm[] = {
"16 16 31 1",
" 	c None",
".	c #F9D063",
"+	c #F5CC63",
"@	c #F5CB62",
"#	c #F3C862",
"$	c #F2C863",
"%	c #F3C964",
"&	c #EFC464",
"*	c #EFC463",
"=	c #EDC464",
"-	c #EEC464",
";	c #EAC164",
">	c #EBC064",
",	c #EAC064",
"'	c #E6BC64",
")	c #E7BC63",
"!	c #E5BC63",
"~	c #E3B863",
"{	c #E3B864",
"]	c #DFB464",
"^	c #DBB064",
"/	c #DBB065",
"(	c #D7AC64",
"_	c #D9AE65",
":	c #D7AB64",
"<	c #D8AE65",
"[	c #D2A866",
"}	c #D3A865",
"|	c #D4A865",
"1	c #D1A364",
"2	c #CCA065",
"                ",
"       .        ",
"      ++@       ",
"    #$   %$     ",
"  &*  =    -&   ",
"   ; >,,,  ,    ",
"      ' )!      ",
"  ~   {{{   ~   ",
"      ]  ]      ",
"   ^ /^/^  ^    ",
"  (_:     (<(   ",
"    [}   }|     ",
"       1        ",
"       2        ",
"                ",
"                "};
