/* XPM */
static char * bitcoin32_xpm[] = {
"30 32 83 1",
" 	c None",
".	c #FBD162",
"+	c #FAD163",
"@	c #F9CF63",
"#	c #F5CC63",
"$	c #F5CB63",
"%	c #F5CB62",
"&	c #F3C962",
"*	c #F3C963",
"=	c #F4C863",
"-	c #F0C865",
";	c #F1C764",
">	c #F0C764",
",	c #EFC564",
"'	c #EEC563",
")	c #EEC564",
"!	c #EFC464",
"~	c #ECC364",
"{	c #EEC364",
"]	c #EDC364",
"^	c #EDC363",
"/	c #ECC264",
"(	c #EDC265",
"_	c #ECC265",
":	c #ECC263",
"<	c #EAC064",
"[	c #EBC065",
"}	c #EBC064",
"|	c #EAC065",
"1	c #E8BF64",
"2	c #E8BE64",
"3	c #E8BD65",
"4	c #E6BC64",
"5	c #E4BA64",
"6	c #E4B964",
"7	c #E4BA65",
"8	c #E5BA64",
"9	c #E2B864",
"0	c #E2B964",
"a	c #E2B865",
"b	c #E1B964",
"c	c #E0B665",
"d	c #E0B664",
"e	c #DFB664",
"f	c #DFB564",
"g	c #DFB464",
"h	c #DEB563",
"i	c #DFB463",
"j	c #DDB264",
"k	c #DDB363",
"l	c #DBB064",
"m	c #DBB063",
"n	c #DCB063",
"o	c #DCB064",
"p	c #D8AE64",
"q	c #DAAD64",
"r	c #D9AE64",
"s	c #D8AD63",
"t	c #D9AD64",
"u	c #D9AF63",
"v	c #D8AE65",
"w	c #D9AF65",
"x	c #D7AC63",
"y	c #D7AC64",
"z	c #D6AC64",
"A	c #D4A965",
"B	c #D5AA65",
"C	c #D5A965",
"D	c #D6AB65",
"E	c #D3A866",
"F	c #D3A865",
"G	c #D3A964",
"H	c #D3A665",
"I	c #D2A665",
"J	c #D0A465",
"K	c #D1A464",
"L	c #D1A465",
"M	c #D0A365",
"N	c #CEA165",
"O	c #CDA164",
"P	c #CCA065",
"Q	c #CA9E66",
"R	c #000000",
"                              ",
"                              ",
"             .+.              ",
"              @               ",
"                              ",
"          #$$$$$$$%           ",
"        &***=   =***          ",
"       -;;         ;;>        ",
"   ,, ,,,   '  )    ,,! ,,    ",
"   ~{ ]]    ]  ]     ^] {~    ",
"     //  (////_/:/    //      ",
"     <<    <<[  <<}   |<      ",
"    12     22   122    23     ",
"    44     44   444    44     ",
"    55     5567755     85     ",
"    99     990ab09a    99     ",
"    cd     dd    dd    ed     ",
"    fg     gg    ggh   gi     ",
"     j     jj   kjj    j      ",
"     ll  mlllllllln   ol      ",
"   pqprs    rt r     rruvw    ",
"  xyy zy    y  y     yy yyx   ",
"   A   BBC         DBB   A    ",
"        EFFG     FFFF         ",
"          HIIIIIIIH           ",
"            JKLKM             ",
"              N               ",
"             OPO              ",
"              Q               ",
"                              ",
"                              ",
"   R   R             R        "};
